# xmcd
#
# Track frame offsets:
#	150
#	10922
#	23412
#	37182
#	50292
#	64907
#	78512
#	95640
#	111190
#	128727
#	147330
#	158700
#
# Disc length: 2364 seconds
#
# Revision: 1
# Processed by: cddbd v1.5.1PL0 Copyright (c) Steve Scherf et al.
# Submitted via: EasyCDDAExtractor 6.5.7.1
#
DISCID=9a093a0c
DTITLE=Various Artist - Bugio Cuiudo
DYEAR=2000
DGENRE=Country
TTITLE0=Paulo Siqueira - Bugio Rengo
TTITLE1=Nardel Silva - Casamento da Doralícia
TTITLE2=Zezinho Furquim - Bugio do papo Roxo
TTITLE3=Luis Carlos Borges - O Bugio
TTITLE4=Piazitos do Fandango - Sentimento do Bugio
TTITLE5=Paulo Siqueira - Bugio Bagunceiro
TTITLE6=Gonzaga dos Reis - De Gaita nas Costas
TTITLE7=Nenito Sarturi - Batendo no Pombal
TTITLE8=Porca Véia - O Outro Bugio
TTITLE9=Grupo Querência - Bugio Ousado
TTITLE10=Nenito Sarturi - Campeando
TTITLE11=Antonio Marques - Bugio Macanudo
EXTD=
EXTT0=
EXTT1=
EXTT2=
EXTT3=
EXTT4=
EXTT5=
EXTT6=
EXTT7=
EXTT8=
EXTT9=
EXTT10=
EXTT11=
PLAYORDER=
